<?xml version="1.0" encoding="utf-8"?>
<!-- Generator: Adobe Illustrator 25.0.0, SVG Export Plug-In . SVG Version: 6.00 Build 0)  -->
<svg version="1.1" id="Layer_1" xmlns="http://www.w3.org/2000/svg" xmlns:xlink="http://www.w3.org/1999/xlink" x="0px" y="0px"
	 viewBox="0 0 500 500" style="enable-background:new 0 0 500 500;" xml:space="preserve">
<style type="text/css">
	.st0{fill:#FFFFFF;}
	.st1{font-family:'BigShouldersDisplay-Bold';}
	.st2{font-size:70px;}
	.st3{letter-spacing:-0.8;}
</style>
<g id="Bars">
	<polygon class="st0" points="214,76.6 369,76.7 369,161.7 214,161.7 	"/>
	<path class="st0" d="M200.8,260c-23.5,0-46.5,0-70,0c0-61,0-121.7,0-182.9c23.2,0,46.4,0,70,0C200.8,137.9,200.8,198.7,200.8,260z"
		/>
	<polygon class="st0" points="214,175.3 214.7,260 285,260 285,176 	"/>
	<path class="st0" d="M368.9,260c-23.3,0-46.4,0-69.9,0c0-28.1,0-56.1,0-84.3c23.3,0,46.4,0,69.9,0
		C368.9,203.7,368.9,231.6,368.9,260z"/>
</g>
<text transform="matrix(1.2609 0 0 1 167.6631 332.3234)" class="st0 st1 st2 st3">RAVEL</text>
<text transform="matrix(1.2609 0 0 1 166.7803 403.3234)" class="st0 st1 st2 st3">CRAFT</text>
</svg>
